<svg width="170" height="37" viewBox="0 0 170 37" fill="none" xmlns="http://www.w3.org/2000/svg">
<path d="M53.508 13.724H48.69V26H45.214V13.724H40.418V10.402H53.508V13.724ZM63.5579 26L60.7639 20.192H59.5319V26H56.0559V10.402H62.2379C63.7485 10.402 64.9659 10.864 65.8899 11.788C66.8285 12.712 67.2979 13.878 67.2979 15.286C67.2979 16.342 67.0265 17.2587 66.4839 18.036C65.9412 18.7987 65.1859 19.3487 64.2179 19.686L67.3859 26H63.5579ZM59.5319 17.2H61.5779C62.2819 17.2 62.8245 17.0313 63.2059 16.694C63.5872 16.342 63.7779 15.88 63.7779 15.308C63.7779 14.7213 63.5872 14.2593 63.2059 13.922C62.8245 13.5847 62.2819 13.416 61.5779 13.416H59.5319V17.2ZM80.7823 24.79C79.6237 25.8313 78.1497 26.352 76.3603 26.352C74.571 26.352 73.0897 25.8313 71.9163 24.79C70.7577 23.734 70.1783 22.26 70.1783 20.368V10.402H73.6543V20.082C73.6543 21.006 73.889 21.71 74.3583 22.194C74.8423 22.678 75.5097 22.92 76.3603 22.92C77.211 22.92 77.871 22.678 78.3403 22.194C78.8243 21.71 79.0663 21.006 79.0663 20.082V10.402H82.5423V20.368C82.5423 22.26 81.9557 23.734 80.7823 24.79ZM96.9766 14.23L93.8526 15.11C93.7792 14.626 93.5372 14.1787 93.1266 13.768C92.7159 13.3573 92.0926 13.152 91.2566 13.152C90.6259 13.152 90.1126 13.3207 89.7166 13.658C89.3206 13.9807 89.1226 14.3693 89.1226 14.824C89.1226 15.6307 89.6359 16.1293 90.6626 16.32L92.7526 16.716C94.1899 16.98 95.2972 17.5447 96.0746 18.41C96.8666 19.2607 97.2626 20.258 97.2626 21.402C97.2626 22.7073 96.7419 23.8587 95.7006 24.856C94.6592 25.8387 93.2586 26.33 91.4986 26.33C89.5332 26.33 88.0079 25.824 86.9226 24.812C85.8519 23.7853 85.2506 22.6267 85.1186 21.336L88.3086 20.566C88.3819 21.3433 88.6826 21.9887 89.2106 22.502C89.7532 23.0007 90.5306 23.25 91.5426 23.25C92.2172 23.25 92.7526 23.1033 93.1486 22.81C93.5446 22.502 93.7426 22.106 93.7426 21.622C93.7426 21.226 93.5959 20.896 93.3026 20.632C93.0092 20.3533 92.5986 20.1627 92.0706 20.06L89.9366 19.664C88.6166 19.4147 87.5752 18.8793 86.8126 18.058C86.0646 17.2367 85.6906 16.2467 85.6906 15.088C85.6906 13.6507 86.2406 12.4553 87.3406 11.502C88.4406 10.5487 89.7532 10.072 91.2786 10.072C92.2026 10.072 93.0239 10.204 93.7426 10.468C94.4759 10.7173 95.0552 11.0547 95.4806 11.48C95.9059 11.9053 96.2359 12.3453 96.4706 12.8C96.7199 13.2547 96.8886 13.7313 96.9766 14.23ZM111.879 13.724H107.061V26H103.585V13.724H98.7893V10.402H111.879V13.724ZM121.929 26L119.135 20.192H117.903V26H114.427V10.402H120.609C122.12 10.402 123.337 10.864 124.261 11.788C125.2 12.712 125.669 13.878 125.669 15.286C125.669 16.342 125.398 17.2587 124.855 18.036C124.313 18.7987 123.557 19.3487 122.589 19.686L125.757 26H121.929ZM117.903 17.2H119.949C120.653 17.2 121.196 17.0313 121.577 16.694C121.959 16.342 122.149 15.88 122.149 15.308C122.149 14.7213 121.959 14.2593 121.577 13.922C121.196 13.5847 120.653 13.416 119.949 13.416H117.903V17.2ZM139.11 26L137.988 22.832H131.96L130.838 26H127.186L133.06 10.402H137.086L142.894 26H139.11ZM135.018 14.274L133.104 19.664H136.888L135.018 14.274ZM155.631 13.724H150.813V26H147.337V13.724H142.541V10.402H155.631V13.724ZM168.079 26H158.179V10.402H168.057V13.68H161.655V16.65H167.463V19.708H161.655V22.7H168.079V26Z" fill="#F4F3E8"/>
<path d="M1.305 3.04333L15 0L28.695 3.04333C29.0651 3.12561 29.3961 3.33161 29.6334 3.62734C29.8706 3.92307 29.9999 4.29086 30 4.67V21.315C29.9999 22.9612 29.5933 24.582 28.8165 26.0333C28.0396 27.4847 26.9164 28.7219 25.5467 29.635L15 36.6667L4.45333 29.635C3.08379 28.722 1.96077 27.4852 1.18391 26.0341C0.407059 24.583 0.000393927 22.9626 0 21.3167V4.67C6.5063e-05 4.29086 0.129397 3.92307 0.366649 3.62734C0.603902 3.33161 0.934895 3.12561 1.305 3.04333Z" fill="white"/>
<path d="M20 14.8057H20.25V14.5557V12V11.75H20H10H9.75V12V14.5557V14.8057H10H13.4139V24V24.25H13.6639H16.3193H16.5693V24V14.8057H20Z" fill="#1C1C1C" stroke="#1C1C1C" stroke-width="0.5"/>
</svg>
