<svg width="13" height="17" viewBox="0 0 13 17" fill="none" xmlns="http://www.w3.org/2000/svg">
<path d="M0.888 7.928H2.592V0.271999H6.984C7.8 0.271999 8.544 0.367999 9.216 0.559999C9.888 0.735999 10.464 1.016 10.944 1.4C11.424 1.768 11.8 2.24 12.072 2.816C12.344 3.392 12.48 4.08 12.48 4.88C12.48 5.68 12.336 6.376 12.048 6.968C11.76 7.56 11.368 8.056 10.872 8.456C10.376 8.84 9.792 9.128 9.12 9.32C8.448 9.512 7.72 9.608 6.936 9.608H4.512V12.032H8.376V13.616H4.512V17H2.592V13.616H0.888V12.032H2.592V9.608H0.888V7.928ZM6.984 7.928C8.088 7.928 8.952 7.68 9.576 7.184C10.216 6.672 10.536 5.904 10.536 4.88C10.536 3.856 10.216 3.112 9.576 2.648C8.952 2.184 8.088 1.952 6.984 1.952H4.512V7.928H6.984Z" fill="#28BA74"/>
</svg>
