<svg width="20" height="26" viewBox="0 0 20 26" fill="none" xmlns="http://www.w3.org/2000/svg">
<path d="M0.828 12.752H3.816V0.799998H10.512C12.12 0.799998 13.488 1.028 14.616 1.484C15.744 1.916 16.656 2.504 17.352 3.248C18.072 3.968 18.588 4.82 18.9 5.804C19.236 6.764 19.404 7.76 19.404 8.792C19.404 9.848 19.236 10.844 18.9 11.78C18.588 12.716 18.072 13.544 17.352 14.264C16.656 14.984 15.744 15.56 14.616 15.992C13.488 16.4 12.12 16.604 10.512 16.604H8.496V19.34H14.832V23.048H8.496V26H3.816V23.048H0.828V19.34H3.816V16.604H0.828V12.752ZM10.044 12.752C10.692 12.752 11.292 12.704 11.844 12.608C12.42 12.488 12.924 12.284 13.356 11.996C13.788 11.708 14.124 11.312 14.364 10.808C14.604 10.28 14.724 9.608 14.724 8.792C14.724 7.976 14.604 7.292 14.364 6.74C14.124 6.188 13.788 5.756 13.356 5.444C12.924 5.108 12.42 4.88 11.844 4.76C11.292 4.616 10.692 4.544 10.044 4.544H8.496V12.752H10.044Z" fill="#1C1C1C"/>
</svg>
